<svg width="32" height="32" viewBox="0 0 32 32" fill="none" xmlns="http://www.w3.org/2000/svg">
<g clip-path="url(#clip0_344_376)">
<path d="M13.1211 16.3536L13.4746 16L13.1211 15.6464L1.02303 3.54842C1.02303 3.54841 1.02302 3.54841 1.02302 3.54841C0.325656 2.85103 0.325661 1.72039 1.02302 1.02302C1.72039 0.325661 2.85103 0.325656 3.54841 1.02302C3.54841 1.02302 3.54841 1.02303 3.54842 1.02303L15.6464 13.1211L16 13.4746L16.3536 13.1211L28.4516 1.02302L28.4516 1.02301C29.1489 0.325663 30.2796 0.325663 30.977 1.02301C31.6743 1.72037 31.6743 2.85103 30.977 3.54841C30.977 3.54842 30.977 3.54842 30.9769 3.54843L18.8789 15.6464L18.5254 16L18.8789 16.3536L30.977 28.4516C31.6743 29.1489 31.6743 30.2797 30.977 30.977C30.2797 31.6743 29.1489 31.6743 28.4516 30.977L16.3536 18.8789L16 18.5254L15.6464 18.8789L3.54843 30.9769C3.54842 30.977 3.54842 30.977 3.54841 30.977C2.85103 31.6743 1.72037 31.6743 1.02301 30.977C0.325663 30.2796 0.325663 29.1489 1.02301 28.4516L1.02302 28.4516L13.1211 16.3536Z" fill="#F8D57E" stroke="black"/>
</g>
<defs>
<clipPath id="clip0_344_376">
<rect width="32" height="32" fill="white"/>
</clipPath>
</defs>
</svg>
