<svg width="31" height="31" viewBox="0 0 31 31" fill="none" xmlns="http://www.w3.org/2000/svg">
<path d="M1.5 10C1.5 5.30558 5.30558 1.5 10 1.5H21C25.6944 1.5 29.5 5.30558 29.5 10V21C29.5 25.6944 25.6944 29.5 21 29.5H10C5.30558 29.5 1.5 25.6944 1.5 21V10Z" fill="#D9EFEB" fill-opacity="0.5" stroke="black" stroke-width="3"/>
<path d="M4 12C4 7.58172 7.58172 4 12 4H19C23.4183 4 27 7.58172 27 12V19C27 23.4183 23.4183 27 19 27H12C7.58172 27 4 23.4183 4 19V12Z" fill="#BFAFF2"/>
<path d="M4 12C4 7.58172 7.58172 4 12 4H19C23.4183 4 27 7.58172 27 12V19C27 23.4183 23.4183 27 19 27H12C7.58172 27 4 23.4183 4 19V12Z" stroke="#BFAFF2"/>
</svg>
