<svg width="32" height="32" viewBox="0 0 32 32" fill="none" xmlns="http://www.w3.org/2000/svg">
<g clip-path="url(#clip0_232_159)">
<mask id="path-1-inside-1_232_159" fill="white">
<path fill-rule="evenodd" clip-rule="evenodd" d="M31.1704 2.73916C32.1435 3.54332 32.2806 4.98405 31.4763 5.95714L13.0992 28.1954L13.0937 28.2021C12.6757 28.704 12.151 29.1065 11.558 29.3801C10.9649 29.6539 10.3182 29.792 9.6651 29.7845C9.00126 29.7762 8.34585 29.6176 7.75205 29.3207C7.16023 29.0249 6.64288 28.5991 6.23856 28.0754C6.23719 28.0736 6.23584 28.072 6.23447 28.0702L0.481586 20.6736C-0.293431 19.6772 -0.113925 18.2411 0.882525 17.4661C1.87898 16.6911 3.31504 16.8706 4.09006 17.867L9.72108 25.107L27.9524 3.04508C28.7565 2.07198 30.1974 1.93502 31.1704 2.73916Z"/>
</mask>
<path fill-rule="evenodd" clip-rule="evenodd" d="M31.1704 2.73916C32.1435 3.54332 32.2806 4.98405 31.4763 5.95714L13.0992 28.1954L13.0937 28.2021C12.6757 28.704 12.151 29.1065 11.558 29.3801C10.9649 29.6539 10.3182 29.792 9.6651 29.7845C9.00126 29.7762 8.34585 29.6176 7.75205 29.3207C7.16023 29.0249 6.64288 28.5991 6.23856 28.0754C6.23719 28.0736 6.23584 28.072 6.23447 28.0702L0.481586 20.6736C-0.293431 19.6772 -0.113925 18.2411 0.882525 17.4661C1.87898 16.6911 3.31504 16.8706 4.09006 17.867L9.72108 25.107L27.9524 3.04508C28.7565 2.07198 30.1974 1.93502 31.1704 2.73916Z" fill="#F8D57E" stroke="black" stroke-width="2" mask="url(#path-1-inside-1_232_159)"/>
</g>
<defs>
<clipPath id="clip0_232_159">
<rect width="32" height="32" fill="white"/>
</clipPath>
</defs>
</svg>
