<svg width="32" height="34" viewBox="0 0 32 34" fill="none" xmlns="http://www.w3.org/2000/svg">
<g clip-path="url(#clip0_231_138)">
<mask id="path-1-inside-1_231_138" fill="white">
<path d="M24.4914 0C24.0347 0 23.5826 0.0969558 23.1616 0.285174C22.7433 0.472223 22.3641 0.745655 22.046 1.08958L3.21673 20.9986C3.07694 21.1464 2.97552 21.3301 2.92235 21.5319L0.0423541 32.4605C-0.0689719 32.8828 0.0428094 33.3362 0.334761 33.6466C0.626715 33.9567 1.05344 34.0755 1.45103 33.9572L11.7368 30.8972C11.9267 30.8406 12.0996 30.7328 12.2387 30.5844L30.9762 10.5786L30.9794 10.5753C31.2992 10.2373 31.5531 9.83556 31.7266 9.39307C31.9008 8.94918 31.9904 8.47303 31.9904 7.99213C31.9904 7.51122 31.9008 7.03508 31.7266 6.59116C31.5531 6.14867 31.2992 5.74691 30.9794 5.40895L30.9762 5.4057L26.9392 1.09212C26.6208 0.746998 26.2407 0.472682 25.8213 0.285174C25.4002 0.0969558 24.9481 0 24.4914 0Z"/>
</mask>
<path d="M24.4914 0C24.0347 0 23.5826 0.0969558 23.1616 0.285174C22.7433 0.472223 22.3641 0.745655 22.046 1.08958L3.21673 20.9986C3.07694 21.1464 2.97552 21.3301 2.92235 21.5319L0.0423541 32.4605C-0.0689719 32.8828 0.0428094 33.3362 0.334761 33.6466C0.626715 33.9567 1.05344 34.0755 1.45103 33.9572L11.7368 30.8972C11.9267 30.8406 12.0996 30.7328 12.2387 30.5844L30.9762 10.5786L30.9794 10.5753C31.2992 10.2373 31.5531 9.83556 31.7266 9.39307C31.9008 8.94918 31.9904 8.47303 31.9904 7.99213C31.9904 7.51122 31.9008 7.03508 31.7266 6.59116C31.5531 6.14867 31.2992 5.74691 30.9794 5.40895L30.9762 5.4057L26.9392 1.09212C26.6208 0.746998 26.2407 0.472682 25.8213 0.285174C25.4002 0.0969558 24.9481 0 24.4914 0Z" fill="#F8D57E" stroke="black" stroke-width="2" mask="url(#path-1-inside-1_231_138)"/>
</g>
<defs>
<clipPath id="clip0_231_138">
<rect width="32" height="34" fill="white"/>
</clipPath>
</defs>
</svg>
