<svg width="32" height="32" viewBox="0 0 32 32" fill="none" xmlns="http://www.w3.org/2000/svg">
<path d="M21.0374 3.14095L20.8789 2.16675H14.667C13.656 2.16675 12.8335 2.98918 12.8335 4V5.33325C12.8335 5.79331 12.4601 6.16675 12.0002 6.16675C11.5404 6.16675 11.167 5.79331 11.167 5.33325V4C11.167 2.07082 12.7378 0.5 14.667 0.5H28.9475C28.9478 0.500071 28.9481 0.500142 28.9484 0.500214C28.9731 0.506534 29.0104 0.514715 29.0559 0.518392L29.0962 0.0200195L29.1366 0.518387C30.4156 0.414766 31.5002 1.41024 31.5002 2.66675V26.6667C31.5002 27.592 30.9117 28.4193 30.0328 28.7238C30.032 28.7241 30.0312 28.7244 30.0304 28.7246L22.03 31.3918C21.7845 31.4674 21.565 31.5 21.3335 31.5C20.139 31.5 19.167 30.5279 19.167 29.3333V28V27.5H18.667H14.667C12.7378 27.5 11.167 25.9292 11.167 24V21.3333C11.167 20.8735 11.5404 20.5 12.0002 20.5C12.4601 20.5 12.8335 20.8735 12.8335 21.3333V24C12.8335 25.0108 13.656 25.8333 14.667 25.8333H18.667H19.167V25.3333V5.33325C19.167 4.40781 19.7557 3.58052 20.6333 3.27608L21.0374 3.14095Z" fill="#F8D57E" stroke="black"/>
<path d="M7.16675 12.5H6.66675H1.33325C0.873555 12.5 0.5 12.8736 0.5 13.3332C0.5 13.7932 0.873614 14.1667 1.33325 14.1667H6.66675H7.16675V14.6667V18.6667C7.16675 19.0029 7.36999 19.3075 7.68102 19.4369C7.99266 19.5657 8.35067 19.4942 8.58907 19.2558L13.9223 13.9223L13.9224 13.9222C14.2485 13.5963 14.2486 13.0704 13.9223 12.7442L8.58907 7.41092C8.35043 7.17228 7.99223 7.10081 7.68077 7.22993L7.16675 12.5ZM7.16675 12.5V12M7.16675 12.5V12M7.16675 12V8C7.16675 7.66373 7.37007 7.35911 7.68075 7.22994L7.16675 12Z" fill="#F8D57E" stroke="black"/>
</svg>
