<svg width="32" height="34" viewBox="0 0 32 34" fill="none" xmlns="http://www.w3.org/2000/svg">
<g clip-path="url(#clip0_231_142)">
<mask id="path-1-inside-1_231_142" fill="white">
<path fill-rule="evenodd" clip-rule="evenodd" d="M13.1675 4.88765C13.9174 4.09061 14.9345 3.64286 15.995 3.64286C17.0556 3.64286 18.0727 4.09061 18.8226 4.88765C19.2964 5.39126 19.639 6.00821 19.8271 6.67857H12.163C12.351 6.00821 12.6937 5.39126 13.1675 4.88765ZM8.65717 6.67857C8.89794 5.03494 9.62339 3.50266 10.7439 2.31176C12.1366 0.831567 14.0255 0 15.995 0C17.9646 0 19.8535 0.831567 21.2462 2.31176C22.3667 3.50266 23.0922 5.03494 23.3329 6.67857H29.705C30.6515 6.67857 31.4188 7.49406 31.4188 8.5C31.4188 9.50596 30.6515 10.3214 29.705 10.3214H27.42V30.3571C27.42 31.3232 27.059 32.25 26.4162 32.9331C25.7735 33.6163 24.9015 34 23.9925 34H7.99754C7.0885 34 6.2167 33.6163 5.57393 32.9331C4.93116 32.25 4.57004 31.3232 4.57004 30.3571V10.3214H2.28504C1.33856 10.3214 0.571289 9.50596 0.571289 8.5C0.571289 7.49406 1.33856 6.67857 2.28504 6.67857H8.65717ZM11.425 14.2714C12.2138 14.2714 12.8532 14.951 12.8532 15.7893V25.5073C12.8532 26.3454 12.2138 27.0251 11.425 27.0251C10.6363 27.0251 9.99691 26.3454 9.99691 25.5073V15.7893C9.99691 14.951 10.6363 14.2714 11.425 14.2714ZM21.9932 15.7893C21.9932 14.951 21.3538 14.2714 20.565 14.2714C19.7763 14.2714 19.1369 14.951 19.1369 15.7893V25.5073C19.1369 26.3454 19.7763 27.0251 20.565 27.0251C21.3538 27.0251 21.9932 26.3454 21.9932 25.5073V15.7893Z"/>
</mask>
<path fill-rule="evenodd" clip-rule="evenodd" d="M13.1675 4.88765C13.9174 4.09061 14.9345 3.64286 15.995 3.64286C17.0556 3.64286 18.0727 4.09061 18.8226 4.88765C19.2964 5.39126 19.639 6.00821 19.8271 6.67857H12.163C12.351 6.00821 12.6937 5.39126 13.1675 4.88765ZM8.65717 6.67857C8.89794 5.03494 9.62339 3.50266 10.7439 2.31176C12.1366 0.831567 14.0255 0 15.995 0C17.9646 0 19.8535 0.831567 21.2462 2.31176C22.3667 3.50266 23.0922 5.03494 23.3329 6.67857H29.705C30.6515 6.67857 31.4188 7.49406 31.4188 8.5C31.4188 9.50596 30.6515 10.3214 29.705 10.3214H27.42V30.3571C27.42 31.3232 27.059 32.25 26.4162 32.9331C25.7735 33.6163 24.9015 34 23.9925 34H7.99754C7.0885 34 6.2167 33.6163 5.57393 32.9331C4.93116 32.25 4.57004 31.3232 4.57004 30.3571V10.3214H2.28504C1.33856 10.3214 0.571289 9.50596 0.571289 8.5C0.571289 7.49406 1.33856 6.67857 2.28504 6.67857H8.65717ZM11.425 14.2714C12.2138 14.2714 12.8532 14.951 12.8532 15.7893V25.5073C12.8532 26.3454 12.2138 27.0251 11.425 27.0251C10.6363 27.0251 9.99691 26.3454 9.99691 25.5073V15.7893C9.99691 14.951 10.6363 14.2714 11.425 14.2714ZM21.9932 15.7893C21.9932 14.951 21.3538 14.2714 20.565 14.2714C19.7763 14.2714 19.1369 14.951 19.1369 15.7893V25.5073C19.1369 26.3454 19.7763 27.0251 20.565 27.0251C21.3538 27.0251 21.9932 26.3454 21.9932 25.5073V15.7893Z" fill="#F8D57E" stroke="black" stroke-width="2" mask="url(#path-1-inside-1_231_142)"/>
</g>
<defs>
<clipPath id="clip0_231_142">
<rect width="31.99" height="34" fill="white"/>
</clipPath>
</defs>
</svg>
