<svg width="32" height="32" viewBox="0 0 32 32" fill="none" xmlns="http://www.w3.org/2000/svg">
<mask id="path-1-inside-1_232_163" fill="white">
<path fill-rule="evenodd" clip-rule="evenodd" d="M12.7014 1.57539L11.643 4.3077L7.99987 6.37538L5.09526 5.9323C4.61162 5.86665 4.11937 5.94629 3.68106 6.16105C3.24278 6.37582 2.8782 6.71602 2.63372 7.13847L1.64911 8.86153C1.39681 9.2907 1.28056 9.78629 1.31572 10.2829C1.35087 10.7795 1.53578 11.2537 1.84603 11.6431L3.69219 13.9323V18.0677L1.89526 20.3569C1.58501 20.7463 1.40011 21.2205 1.36495 21.7171C1.32979 22.2137 1.44604 22.7093 1.69834 23.1385L2.68296 24.8615C2.92744 25.2839 3.29201 25.6242 3.7303 25.8389C4.16858 26.0537 4.66083 26.1333 5.14449 26.0677L8.04911 25.6247L11.643 27.6923L12.7014 30.4247C12.8799 30.8873 13.194 31.2853 13.6025 31.5662C14.0109 31.8473 14.4948 31.9986 14.9906 32H17.0583C17.5542 31.9986 18.038 31.8473 18.4465 31.5662C18.855 31.2853 19.1691 30.8873 19.3476 30.4247L20.406 27.6923L23.9999 25.6247L26.9046 26.0677C27.3882 26.1333 27.8804 26.0537 28.3188 25.8389C28.7569 25.6242 29.1215 25.2839 29.3661 24.8615L30.3508 23.1385C30.6029 22.7093 30.7192 22.2137 30.684 21.7171C30.6488 21.2205 30.4639 20.7463 30.1537 20.3569L28.3076 18.0677V13.9323L30.1046 11.6431C30.4148 11.2537 30.5997 10.7795 30.6349 10.2829C30.6701 9.78629 30.5537 9.2907 30.3014 8.86153L29.3167 7.13847C29.0724 6.71602 28.7078 6.37582 28.2694 6.16105C27.8312 5.94629 27.3389 5.86665 26.8552 5.9323L23.9508 6.37538L20.3568 4.3077L19.2983 1.57539C19.1198 1.11277 18.8058 0.714857 18.3973 0.433753C17.9888 0.15265 17.505 0.00146475 17.0091 0H14.9906C14.4948 0.00146475 14.0109 0.15265 13.6025 0.433753C13.194 0.714857 12.8799 1.11277 12.7014 1.57539ZM15.9999 21.1429C18.8402 21.1429 21.1428 18.8403 21.1428 16C21.1428 13.1597 18.8402 10.8571 15.9999 10.8571C13.1596 10.8571 10.857 13.1597 10.857 16C10.857 18.8403 13.1596 21.1429 15.9999 21.1429Z"/>
</mask>
<path fill-rule="evenodd" clip-rule="evenodd" d="M12.7014 1.57539L11.643 4.3077L7.99987 6.37538L5.09526 5.9323C4.61162 5.86665 4.11937 5.94629 3.68106 6.16105C3.24278 6.37582 2.8782 6.71602 2.63372 7.13847L1.64911 8.86153C1.39681 9.2907 1.28056 9.78629 1.31572 10.2829C1.35087 10.7795 1.53578 11.2537 1.84603 11.6431L3.69219 13.9323V18.0677L1.89526 20.3569C1.58501 20.7463 1.40011 21.2205 1.36495 21.7171C1.32979 22.2137 1.44604 22.7093 1.69834 23.1385L2.68296 24.8615C2.92744 25.2839 3.29201 25.6242 3.7303 25.8389C4.16858 26.0537 4.66083 26.1333 5.14449 26.0677L8.04911 25.6247L11.643 27.6923L12.7014 30.4247C12.8799 30.8873 13.194 31.2853 13.6025 31.5662C14.0109 31.8473 14.4948 31.9986 14.9906 32H17.0583C17.5542 31.9986 18.038 31.8473 18.4465 31.5662C18.855 31.2853 19.1691 30.8873 19.3476 30.4247L20.406 27.6923L23.9999 25.6247L26.9046 26.0677C27.3882 26.1333 27.8804 26.0537 28.3188 25.8389C28.7569 25.6242 29.1215 25.2839 29.3661 24.8615L30.3508 23.1385C30.6029 22.7093 30.7192 22.2137 30.684 21.7171C30.6488 21.2205 30.4639 20.7463 30.1537 20.3569L28.3076 18.0677V13.9323L30.1046 11.6431C30.4148 11.2537 30.5997 10.7795 30.6349 10.2829C30.6701 9.78629 30.5537 9.2907 30.3014 8.86153L29.3167 7.13847C29.0724 6.71602 28.7078 6.37582 28.2694 6.16105C27.8312 5.94629 27.3389 5.86665 26.8552 5.9323L23.9508 6.37538L20.3568 4.3077L19.2983 1.57539C19.1198 1.11277 18.8058 0.714857 18.3973 0.433753C17.9888 0.15265 17.505 0.00146475 17.0091 0H14.9906C14.4948 0.00146475 14.0109 0.15265 13.6025 0.433753C13.194 0.714857 12.8799 1.11277 12.7014 1.57539ZM15.9999 21.1429C18.8402 21.1429 21.1428 18.8403 21.1428 16C21.1428 13.1597 18.8402 10.8571 15.9999 10.8571C13.1596 10.8571 10.857 13.1597 10.857 16C10.857 18.8403 13.1596 21.1429 15.9999 21.1429Z" fill="#F8D57E" stroke="black" stroke-width="2" mask="url(#path-1-inside-1_232_163)"/>
</svg>
